<svg xmlns="http://www.w3.org/2000/svg" viewBox="0 0 50 50" width="50px" height="50px"><defs><style>.cls-1{isolation:isolate;}.cls-2{fill:#fff;}.cls-3{fill:gray;}.cls-4{opacity:0.1;mix-blend-mode:multiply;}</style></defs><title>ball</title><g class="cls-1"><g id="Layer_1" data-name="Layer 1"><circle class="cls-2" cx="25" cy="25" r="23.36"/><path class="cls-3" d="M36.22,45.49q-.53.29-1.09.57C35.5,45.88,35.86,45.69,36.22,45.49Z"/><path class="cls-3" d="M46.16,34.9a23.27,23.27,0,0,0,2.2-9.9c0-.75,0-1.49-.11-2.23A28.8,28.8,0,0,0,43.83,12.2h.24a1.72,1.72,0,0,1,.55.12q-.48-.75-1-1.45C40.5,10.78,35,12,28.48,19.22a40,40,0,0,0-4,5,50.76,50.76,0,0,1-5.91-.85c-.67-.15-1.37-.32-2.08-.52,1.49-2.9,9-16,22.49-16.52-.46-.34-.93-.67-1.41-1C24.14,6.67,16.8,19.93,15.49,22.52a25.66,25.66,0,0,1-6.13-2.8c1-2.05,8.58-16.1,22.17-17.15a23.2,23.2,0,0,0-2.91-.65C16.52,4.48,9.71,16.71,8.48,19.11a14.55,14.55,0,0,1-3.41-3.44C5.67,14.24,9.09,7,16.6,3.2A23.4,23.4,0,0,0,7.53,9.49a29,29,0,0,0-3.14,5.09l-.12-.21,0-.08c-.25.48-.49,1-.7,1.48C5.13,18.49,9,22.39,18.06,24.34a40.06,40.06,0,0,0,6.38.95,51.11,51.11,0,0,1,2.15,5.35c.23.71.45,1.47.65,2.26-3.24.16-18.16.23-25.4-11-.07.54-.13,1.09-.16,1.65C8.57,33,20.8,34,25.78,34c.75,0,1.33,0,1.71,0a25.68,25.68,0,0,1,.64,6.71c-2.3.13-18.26.62-26-10.65a23.17,23.17,0,0,0,.77,2.71c7.2,8.17,18.88,9.05,23.54,9.05.69,0,1.21,0,1.56,0a14.54,14.54,0,0,1-1.27,4.68c-1.75.21-11.58,1-19-5.66a23.42,23.42,0,0,0,7.59,5.52,28.75,28.75,0,0,0,8.76,1.35c.85,0,1.55,0,2.08-.08l-.12.21a1.91,1.91,0,0,1-.66.61c.64,0,1.27,0,1.89-.1,1.66-2.55,3.59-7.94.48-17.5a40,40,0,0,0-2.35-5.94,50.88,50.88,0,0,1,3.64-4.64c.48-.52,1-1.06,1.54-1.59,1.79,2.78,9.6,16.13,2.82,28.21.53-.2,1-.42,1.55-.66C41,33.64,33,20.31,31.39,17.84a25.65,25.65,0,0,1,5.49-3.91c1.31,2,10.19,16.33,3.17,28.92a23.51,23.51,0,0,0,2.15-2.06c4.82-12.16-2.83-25-4.35-27.33a14.59,14.59,0,0,1,4.69-1.24C43.72,13.81,50.54,23.65,46.16,34.9Z"/><path class="cls-3" d="M37.16,45l-.26.15Z"/><path class="cls-4" d="M25,1.64a23.54,23.54,0,0,0-3.52.26,23.37,23.37,0,0,1,0,46.2A23.36,23.36,0,1,0,25,1.64Z"/></g></g></svg>