<svg id="Layer_1" data-name="Layer 1" xmlns="http://www.w3.org/2000/svg" viewBox="0 0 60 60"><defs><style>.cls-1{fill:#ed1c24;}.cls-2{fill:#f88968;}.cls-3{fill:#693;}.cls-4{fill:#ffaf82;}.cls-5{fill:#920e08;}.cls-6{fill:#fff;}.cls-7{fill:#f85c66;}.cls-8{fill:#32324c;}.cls-9{fill:#f39;}.cls-10{fill:#333;}.cls-11{fill:#1a1a1a;}.cls-12{fill:#ff7bac;}</style></defs><title>player1s</title><path class="cls-1" d="M36.37,42.67c2.2-.4,6.16-3.69,8.09-7.42C48.18,27,52,20.15,52,15.07c.06-3.76-1.61-9.63-11.24-12.15-13.63-3.65-26.34.75-30,8.7-1.16,2.88-1.67,4.7-.57,10.37.92,4.09,3.15,7.34,4.47,10.06,2.94,5.3,8.57,9.72,11.58,10.4A27.34,27.34,0,0,0,36.37,42.67Z"/><path class="cls-2" d="M44.06,21.74c-.08,0,4.35-3.07,6.33-.4,1.67,2.35-3,8.55-7.66,8.38A64.79,64.79,0,0,0,44.06,21.74Z"/><path class="cls-3" d="M46.9,29.33a2.18,2.18,0,0,1-1.78,1.18.79.79,0,0,1-.75-1.18,2,2,0,0,1,1.76-1.19A.77.77,0,0,1,46.9,29.33Z"/><path class="cls-2" d="M34.62,42.06a4.11,4.11,0,0,1-3.5-1.83q-.38-1.71-.92-3.43,3,.64,5.65,1.28Z"/><path class="cls-4" d="M31.84,39.41C24.54,37,15.76,22.32,16.16,22.29a11.5,11.5,0,0,1-.43-2.42,10.54,10.54,0,0,1,.13-2.68c.5-2.82,2.59-6,8-7.4l.51-.13c8.78-2.12,22.93-1.17,24.84,6.89a7.45,7.45,0,0,1,.16,1.56c0,.32,0,.65-.05,1C48,27.56,37.12,41.72,31.84,39.41Z"/><path class="cls-5" d="M38.55,33.28a6.24,6.24,0,0,1-.95,1.07,4.26,4.26,0,0,1-2.92,1.13A3.07,3.07,0,0,1,32.27,34a10,10,0,0,1-1-1.65,10.34,10.34,0,0,1-.44-1.06s5.87-.18,8.87-.59h0a6.74,6.74,0,0,1-.38,1.15A7.78,7.78,0,0,1,38.55,33.28Z"/><path class="cls-6" d="M39.35,31.85a54.88,54.88,0,0,1-8,.5,10.34,10.34,0,0,1-.44-1.06s5.87-.18,8.87-.59h0A6.74,6.74,0,0,1,39.35,31.85Z"/><path class="cls-7" d="M37.6,34.35a4.26,4.26,0,0,1-2.92,1.13A3.07,3.07,0,0,1,32.27,34a3.24,3.24,0,0,1,2.78-.17,2.41,2.41,0,0,1,1.43-.22A1.24,1.24,0,0,1,37.6,34.35Z"/><path class="cls-2" d="M33.91,37.15a3.77,3.77,0,0,1-1.44-.73.35.35,0,0,1,0-.45.26.26,0,0,1,.39-.08,3,3,0,0,0,3.52.26.21.21,0,0,1,.34.13.45.45,0,0,1-.23.43A3.41,3.41,0,0,1,33.91,37.15Z"/><path class="cls-2" d="M36.54,29.37H34.73a.32.32,0,0,1-.33-.35.41.41,0,0,1,.42-.35h1.84a.1.1,0,0,0,.07,0,.08.08,0,0,0,0-.07c-.24-1.61-.57-3.22-1-4.83a.39.39,0,0,1,.34-.43.4.4,0,0,1,.5.24c.38,1.61.68,3.23.9,4.84a.83.83,0,0,1-.26.68A1,1,0,0,1,36.54,29.37Z"/><path class="cls-1" d="M31,17.43h0c.2.36-.06.78-.57.89-1.69.39-5.08,1.37-6,3.08,0,0-.71-2.46,5.39-4.34A1.06,1.06,0,0,1,31,17.43Z"/><path class="cls-1" d="M40.09,17h0c-.2.38.08.77.59.84,1.71.25,5.19.93,6.16,2.53,0,0,.71-2.47-5.54-3.83A1.13,1.13,0,0,0,40.09,17Z"/><path class="cls-1" d="M25.29,10.45c.05,0-.72,9.78-5.28,13.77,0,0-1-2.61-5.48-2.22a17.5,17.5,0,0,1-2.15-3.57c-2.07-3-.75-15,20.18-14.22-.08,0,6.69-.87,15.32,4.18,8.36,5.07,1.22,10.73,1.39,10.72A63.78,63.78,0,0,1,25.29,10.45Z"/><path class="cls-8" d="M27.36,24.66a2.65,2.65,0,0,1,2.34-3c2.82-.6,3.61,2.42,3.58,2.42C33.42,24.06,29.72,20.13,27.36,24.66Z"/><path class="cls-8" d="M39.22,24a3.8,3.8,0,0,1,3.42-2.79c3-.37,2.64,2.71,2.62,2.71C45.41,23.89,43.25,19.69,39.22,24Z"/><path class="cls-4" d="M20.78,25.78c.11,0-5.5-2.2-5.63,1.46.28,3.23,6.36,9.25,9.8,7.27C23.68,31.62,22.27,28.71,20.78,25.78Z"/><path class="cls-3" d="M23.88,34.68c.16.65-.15,1.17-.7,1.17a1.72,1.72,0,0,1-1.42-1.17c-.23-.65.09-1.17.71-1.17A1.57,1.57,0,0,1,23.88,34.68Z"/><path class="cls-2" d="M22.55,31.88a9.4,9.4,0,0,0-5.28-4.19s3.69,2.48,4.37,4.38a.68.68,0,0,0,.6.43h.06C22.6,32.48,22.73,32.17,22.55,31.88Z"/><path class="cls-9" d="M36,48.53,35.32,56H34.18c-.26-2.89-.84-6.73.06-7.76a14.36,14.36,0,0,1-1.11-7c.87-.38,2.16-.81,2.16-.81C35.74,42.86,36,48.53,36,48.53Z"/><path class="cls-10" d="M38,57.71H34.24a.34.34,0,0,1-.34-.28.31.31,0,0,1,0-.07L34,55.5a2.27,2.27,0,0,1,.37-.12.37.37,0,0,0,.28-.24v0c.09-.36.63-.47.73-.12l0,.13v0c0,.08,0,.14,0,.21h0a1.89,1.89,0,0,1,0,.25l.14.18.07.09.14.18.07.08.15.17.07.07a1.09,1.09,0,0,0,.62.35,1.67,1.67,0,0,1,1.39.66l0,0A.22.22,0,0,1,38,57.71Z"/><path class="cls-11" d="M38,57.71H34.24a.34.34,0,0,1-.34-.28H38.2A.22.22,0,0,1,38,57.71Z"/><path class="cls-6" d="M35.74,55.88a.65.65,0,0,1-.31.2l-.1,0,0-.09.1,0c.2-.08.26-.15.28-.19Z"/><ellipse class="cls-6" cx="35.32" cy="56.07" rx="0.12" ry="0.11"/><path class="cls-6" d="M36,56.13a.74.74,0,0,1-.26.15l-.12,0,0-.09.11,0a.59.59,0,0,0,.23-.14Z"/><ellipse class="cls-6" cx="35.58" cy="56.28" rx="0.12" ry="0.11"/><path class="cls-6" d="M36.18,56.38a.75.75,0,0,1-.25.15l-.12,0,0-.09.11,0a.64.64,0,0,0,.22-.13Z"/><ellipse class="cls-6" cx="35.81" cy="56.52" rx="0.12" ry="0.11"/><path class="cls-6" d="M35.51,55.36a2.77,2.77,0,0,0-.33,0V55.2a.89.89,0,0,1,.3,0C35.49,55.23,35.5,55.3,35.51,55.36Z"/><path class="cls-12" d="M33.46,41.17s-.27,4-.82,7.38c-.12.73-.26,5.4-.62,7.41H30.88l-.22-7.29a37.79,37.79,0,0,1,.2-7.81Z"/><path class="cls-10" d="M33,57.46c0,.62-2.1.41-2.43.22a.43.43,0,0,1-.19-.38,2.83,2.83,0,0,1,.16-.88c.13-.44.11-.43.21-.73,0,0,0-.49.65-.68s.92,1,1,1.26.52.51.56,1A1.14,1.14,0,0,1,33,57.46Z"/><path class="cls-6" d="M31.06,56.08,31,56a1.42,1.42,0,0,1,1.14-.16l0,.09A1.34,1.34,0,0,0,31.06,56.08Z"/><path class="cls-6" d="M31.12,56.63l-.05-.08a1.42,1.42,0,0,1,1.14-.16l0,.09A1.34,1.34,0,0,0,31.12,56.63Z"/><path class="cls-6" d="M31.09,56.35,31,56.28a1.42,1.42,0,0,1,1.14-.16l0,.09A1.34,1.34,0,0,0,31.09,56.35Z"/><ellipse class="cls-6" cx="31.03" cy="56.06" rx="0.11" ry="0.11"/><ellipse class="cls-6" cx="31.03" cy="56.32" rx="0.11" ry="0.11"/><ellipse class="cls-6" cx="31.09" cy="56.57" rx="0.11" ry="0.11"/><ellipse class="cls-6" cx="32.18" cy="56.42" rx="0.11" ry="0.11"/><ellipse class="cls-6" cx="32.16" cy="56.14" rx="0.11" ry="0.11"/><ellipse class="cls-6" cx="32.13" cy="55.86" rx="0.11" ry="0.11"/><path class="cls-11" d="M33,57.46c0,.62-2.1.41-2.43.22a.43.43,0,0,1-.19-.38,2.53,2.53,0,0,0,1.17.27A3,3,0,0,0,33,57.31,1.14,1.14,0,0,1,33,57.46Z"/><path class="cls-6" d="M31.72,55.21a1.16,1.16,0,0,0-.58.11l0,.2a2.4,2.4,0,0,1,.62-.09A.45.45,0,0,0,31.72,55.21Z"/><path class="cls-12" d="M31.09,40a4.52,4.52,0,0,0-.29,2.46,4.82,4.82,0,0,0,3.59-.62,2,2,0,0,0,.9-1.84Z"/></svg>