<svg id="Layer_1" data-name="Layer 1" xmlns="http://www.w3.org/2000/svg" viewBox="0 0 60 60" width="60px" height="60px"><defs><style>.cls-1{fill:#9e00af;}.cls-2{fill:#4aa8a8;}.cls-3{fill:#999;}.cls-4{fill:#333;stroke:#333;stroke-miterlimit:10;stroke-width:1.23px;}</style></defs><title>player1</title><path class="cls-1" d="M50.68,11.85c5.81-.21,7.16,2,7.47,4.14S57,20.35,54.27,21.58,46,24.93,46,24.93l-5.38-12.6Z"/><path class="cls-2" d="M39.56,29.76V27.84H35.83V26l-3.65-.09,0-1.68H28.57v3.53h1.81v1.77H34v1.81h3.84v1.84H41.4l0,.23-1.08,1a24,24,0,0,1-16,5.91c-12.39,0-22.44-7.63-22.44-17.05s10-17.06,22.44-17.06A25.87,25.87,0,0,1,41,12a15,15,0,0,1,5.68,11.33,11.07,11.07,0,0,1-1.38,6.31Z"/><polygon class="cls-1" points="35.43 51.88 35.43 53.73 20.64 53.73 20.64 51.85 22.45 51.79 22.45 46.35 24.33 46.35 24.33 42.66 22.45 42.66 22.45 40.21 25.99 40.07 26.05 42.7 28.03 42.79 28.03 46.35 26.25 46.35 26.25 50 28.03 50.16 28.03 51.81 35.43 51.88"/><rect class="cls-3" x="20.64" y="51.73" width="14.79" height="2"/><polygon class="cls-4" points="30.75 11.55 27.55 11.55 27.55 13.14 25.83 13.14 25.83 18.57 33.11 18.57 33.11 13.24 31.12 13.26 31.16 11.55 30.85 11.55 30.75 11.55"/><rect class="cls-1" x="28.56" y="14.13" width="1.82" height="1.87"/></svg>