<svg id="Layer_1" data-name="Layer 1" xmlns="http://www.w3.org/2000/svg" viewBox="0 0 60 60" width="60px" height="60px"><defs><style>.cls-1{fill:#999;}.cls-2{fill:#4aa8a8;}.cls-3{fill:#9e00af;}.cls-4{fill:#333;stroke:#333;stroke-miterlimit:10;stroke-width:1.23px;}</style></defs><title>player2</title><rect class="cls-1" x="22.76" y="51.73" width="14.79" height="2" transform="translate(60.31 105.46) rotate(-180)"/><path class="cls-2" d="M9,11.85c-5.81-.21-7.16,2-7.47,4.14s1.12,4.36,3.88,5.59,8.31,3.34,8.31,3.34l5.38-12.6Z"/><path class="cls-3" d="M20.09,29.76V27.84h3.72V26L27.46,26l0-1.68h3.65V27.8H29.27v1.77H25.69v1.81H21.86v1.84H18.24l0,.23,1.08,1a24,24,0,0,0,16,5.91c12.39,0,22.44-7.63,22.44-17.05S47.78,6.27,35.39,6.27A25.87,25.87,0,0,0,18.64,12,15,15,0,0,0,13,23.33a11.07,11.07,0,0,0,1.38,6.31Z"/><polygon class="cls-2" points="24.21 51.89 24.21 53.73 39 53.73 39 51.85 37.19 51.79 37.19 46.35 35.31 46.35 35.31 42.67 37.19 42.67 37.19 40.21 33.65 40.07 33.59 42.7 31.61 42.79 31.61 46.35 33.4 46.35 33.4 50.01 31.61 50.16 31.61 51.81 24.21 51.89"/><polygon class="cls-4" points="28.9 11.55 32.1 11.55 32.1 13.14 33.81 13.14 33.81 18.57 26.54 18.57 26.54 13.24 28.52 13.26 28.49 11.55 28.79 11.55 28.9 11.55"/><rect class="cls-2" x="29.26" y="14.13" width="1.82" height="1.87"/></svg>