<svg id="Layer_1" data-name="Layer 1" xmlns="http://www.w3.org/2000/svg" viewBox="0 0 60 60"><defs><style>.cls-1{fill:#b55441;}.cls-2{fill:#d37157;}.cls-3{fill:#ffaf82;}.cls-4{fill:#42210b;}.cls-5{fill:#f88968;}.cls-6{fill:#603813;}.cls-7{fill:#920e08;}.cls-8{fill:#fff;}.cls-9{fill:#f85c66;}.cls-10{fill:#333;}.cls-11{fill:#1a1a1a;}.cls-12{fill:#ff7bac;}.cls-13{fill:#f39;}</style></defs><title>player2s</title><path class="cls-1" d="M28,31.52l.43,5c3.5-.81,6.32-5.5,6.32-5.5L29.7,31C28.7,31.29,28,31.52,28,31.52Z"/><path class="cls-2" d="M28.71,31.87c.08,1.88.11,3.71.08,5.43q0,1.19-.08,2.31a47.83,47.83,0,0,0,7.74-.47,60.7,60.7,0,0,0,4.9-8.76c-1.83-1.06-7.14.3-10.2.93C29.69,31.62,28.71,31.87,28.71,31.87Z"/><path class="cls-3" d="M4.27,12.54c-.07.25-.15.52-.22.79v0c-.09.38-.17.77-.24,1.17s-.16,1-.2,1.54c0,.09,0,.18,0,.26A20.74,20.74,0,0,0,3.78,21c.05.34.11.67.18,1a26.39,26.39,0,0,0,.85,3.22c.07.21.14.42.22.63.15.42.31.83.47,1.23.36.89.76,1.75,1.18,2.57C9.7,34.78,17,38,22.22,37.34A115.66,115.66,0,0,0,39.73,34l.31-.33a30.59,30.59,0,0,0,5-7.49,19,19,0,0,0,1.64-11,18.85,18.85,0,0,0-1.58-5C35.42-2.09,16.58-1,6.55,7.84l-.24.33A16,16,0,0,0,4.27,12.54Z"/><path class="cls-4" d="M23.6,19.35c0,1.12.63,2,1.46,2s1.51-.89,1.52-2-.64-2-1.45-2S23.63,18.24,23.6,19.35Z"/><path class="cls-4" d="M8.12,19.37a1.72,1.72,0,0,0,1.43,2c.82,0,1.49-.87,1.54-2s-.52-2-1.34-2A1.93,1.93,0,0,0,8.12,19.37Z"/><path class="cls-3" d="M41.09,17.54c.08,0,3.74-3.86,7.44-1.61,4.6,2.52.73,11.05-7.09,10.64A46.72,46.72,0,0,0,41.09,17.54Z"/><path class="cls-5" d="M41.52,24.77a.7.7,0,0,0,.67-.45c1-4.27,4.17-4.9,4.24-4.9.37-.06.6-.34.5-.63a.75.75,0,0,0-.84-.41c-.23,0-4.16.8-5.25,5.8-.07.29.18.55.55.59Z"/><path class="cls-5" d="M46.11,22.14a.82.82,0,0,0,.41-.13.45.45,0,0,0,.08-.75,4.54,4.54,0,0,0-3.67-.86c-.37.06-.61.34-.53.63a.7.7,0,0,0,.81.41,3,3,0,0,1,2.34.52A.79.79,0,0,0,46.11,22.14Z"/><path class="cls-5" d="M16.56,25.43a.83.83,0,0,0,.55-.21.5.5,0,0,0-.18-.81L14.8,23.2l1.82-.32a.67.67,0,0,0,.58-.46c.26-1.23.56-2.47.88-3.7.08-.32-.19-.62-.62-.67a.83.83,0,0,0-.93.48q-.44,1.66-.81,3.32l-2.9.52a.67.67,0,0,0-.57.44.53.53,0,0,0,.31.58L16,25.3A1,1,0,0,0,16.56,25.43Z"/><path class="cls-6" d="M4.27,12.54c-.07.25-.15.52-.22.79v0c-.09.38-.17.77-.24,1.17,3.59-2,6-8.07,6.18-8,0,0,.36,1.16,4,1.34A6.74,6.74,0,0,0,19.41,6s1.42,1.58,5.06,1.39,4.42-1.51,4.42-1.5c.65,2.71,4.56,2.79,4.55,2.78a6.92,6.92,0,0,0,4,4.74c-1.8,2,1.23,4.6,1.24,4.6h2.24c1.59-3.37,5.72-2.68,5.76-2.68a18.85,18.85,0,0,0-1.58-5C35.42-2.09,16.58-1,6.55,7.84l-.24.33A16,16,0,0,0,4.27,12.54Z"/><path class="cls-6" d="M24.07,11.61l-1.13,2s5.21.75,7.86,3.4q.64-.81,1.26-1.62S30.14,12.39,24.07,11.61Z"/><path class="cls-6" d="M13.06,12.15q.36,1,.79,2S8.44,15,5.6,17.57Q5,16.81,4.46,16S6.74,13.13,13.06,12.15Z"/><path class="cls-7" d="M13,30.26a7.57,7.57,0,0,0,1.6,1.2,8.8,8.8,0,0,0,5.14,1,5.91,5.91,0,0,0,4.11-2.17,9.9,9.9,0,0,0,1.43-2.23,9.23,9.23,0,0,0,.54-1.41s-9.9.62-14.69.49h0a5.81,5.81,0,0,0,.58,1.41A7.41,7.41,0,0,0,13,30.26Z"/><path class="cls-8" d="M11.7,28.55a118.7,118.7,0,0,0,13.57-.49,9.23,9.23,0,0,0,.54-1.41s-9.9.62-14.69.49h0A5.81,5.81,0,0,0,11.7,28.55Z"/><path class="cls-9" d="M14.6,31.47a8.8,8.8,0,0,0,5.14,1,5.91,5.91,0,0,0,4.11-2.17,7.7,7.7,0,0,0-4.87.17,5.47,5.47,0,0,0-2.47-.07A2.45,2.45,0,0,0,14.6,31.47Z"/><path class="cls-5" d="M19.46,34.83a7.1,7.1,0,0,0,4.85-1.76.51.51,0,0,0-.17-.81.89.89,0,0,0-1,.08c-.12.1-1.85,1.88-5.75,1.24-.41-.07-.74.13-.74.43s.33.59.73.66A11.8,11.8,0,0,0,19.46,34.83Z"/><path class="cls-10" d="M37.6,37c.17.9-.44,2.4-.89,3.91,0,0-3.16.79-5.39-1A18.39,18.39,0,0,1,28.77,37H37.6Z"/><path class="cls-11" d="M32.39,40.22a28,28,0,0,1-2.22,5.84c.5,2.76,0,5.73-.24,10.36l-1.66-.54-.42-9.67A28.73,28.73,0,0,1,28.79,37Z"/><path class="cls-12" d="M25,59.38h4.78a.44.44,0,0,0,.44-.48L30,56.39a2.8,2.8,0,0,0-.48-.16.48.48,0,0,1-.35-.32v0c-.11-.48-.81-.64-.94-.16l0,.18v0c0,.1,0,.2,0,.28h0a2.7,2.7,0,0,0,0,.34l-.18.24-.09.12-.18.24-.08.11-.2.24-.09.1a1.38,1.38,0,0,1-.79.48,2.09,2.09,0,0,0-1.78.89l0,0A.3.3,0,0,0,25,59.38Z"/><path class="cls-13" d="M25,59.37h4.78A.44.44,0,0,0,30.2,59h-5.5A.3.3,0,0,0,25,59.37Z"/><path class="cls-10" d="M36.79,40.22c-.23,1.6-.54,3.39-.95,5.24a21.27,21.27,0,0,1,1.95,4.95c.69,2.25,1.44,4.27,1.44,4.27-.74.93-1,.94-1.78.6l-4-9.17s-.16-2.65-.13-5.89Z"/><path class="cls-12" d="M36.16,59.37h2.52a1.31,1.31,0,0,0,1-.43,4.42,4.42,0,0,0,1.17-2.16.43.43,0,0,0-.08-.33l-.14-.18-1.37-1.83s-.79.41-.93.75c0,0-.67-.59-1.08-.07-.2.25-.09.43.09.63l.22.23a1.11,1.11,0,0,1,.26.44.75.75,0,0,1,0,.1v0c0,.1,0,.19,0,.27l0,.14c0,.1,0,.19.06.27l0,.13a1.34,1.34,0,0,0,.05.15A10.13,10.13,0,0,0,36,59l0,.07A.22.22,0,0,0,36.16,59.37Z"/><path class="cls-13" d="M36.16,59.37h2.52a1.31,1.31,0,0,0,1-.43,4.41,4.41,0,0,0,1.17-2.16.43.43,0,0,0-.08-.33l-.14-.18a4.92,4.92,0,0,1-1.33,2.57,1,1,0,0,1-.64.23H36A.22.22,0,0,0,36.16,59.37Z"/><path class="cls-8" d="M27.89,56.82a.76.76,0,0,0,.36.25l.12,0,0-.11-.11,0c-.24-.1-.31-.19-.32-.24Z"/><circle class="cls-8" cx="28.39" cy="57.05" r="0.14"/><path class="cls-8" d="M27.57,57.24a.94.94,0,0,0,.33.21l.15.06,0-.13-.14-.05a.75.75,0,0,1-.3-.19Z"/><circle class="cls-8" cx="28.04" cy="57.44" r="0.15"/><path class="cls-8" d="M27.28,57.58a1,1,0,0,0,.32.2l.15.06,0-.13-.14-.05a.82.82,0,0,1-.28-.17Z"/><circle class="cls-8" cx="27.74" cy="57.77" r="0.15"/><path class="cls-8" d="M28.17,56.18a3.08,3.08,0,0,1,.39,0V56a1,1,0,0,0-.35-.06C28.19,56,28.17,56.1,28.17,56.18Z"/><path class="cls-8" d="M37.32,55.75l.22.23c.13-.14.33-.3.33-.3a.8.8,0,0,1-.16-.23A1.47,1.47,0,0,0,37.32,55.75Z"/><path class="cls-8" d="M37.79,56.43a.75.75,0,0,1,0,.1v0a2.25,2.25,0,0,1,.79-.17v-.14A2.36,2.36,0,0,0,37.79,56.43Z"/><path class="cls-8" d="M37.86,56.84l0,.14a2.26,2.26,0,0,1,.73-.15V56.7A2.37,2.37,0,0,0,37.86,56.84Z"/><path class="cls-8" d="M37.94,57.25l0,.13a2.24,2.24,0,0,1,.72-.14V57.1A2.36,2.36,0,0,0,37.94,57.25Z"/><circle class="cls-8" cx="38.56" cy="56.33" r="0.18"/><circle class="cls-8" cx="38.61" cy="56.75" r="0.18"/><circle class="cls-8" cx="38.67" cy="57.17" r="0.18"/></svg>